<?xml version="1.0" encoding="utf-8"?>
<!-- Generator: Adobe Illustrator 17.0.0, SVG Export Plug-In . SVG Version: 6.00 Build 0)  -->
<!DOCTYPE svg PUBLIC "-//W3C//DTD SVG 1.1//EN" "http://www.w3.org/Graphics/SVG/1.1/DTD/svg11.dtd">
<svg version="1.1" xmlns="http://www.w3.org/2000/svg" xmlns:xlink="http://www.w3.org/1999/xlink" x="0px" y="0px" width="50px"
	 height="50px" viewBox="0 0 50 50" enable-background="new 0 0 50 50" xml:space="preserve">
<g id="Layer_10">
	<polygon points="50,0 50,25 37.53,12.53 37.53,12.47 37.47,12.47 25,0 	"/>
</g>
<g id="Layer_5">
	<polygon points="25,0 12.53,12.47 12.47,12.47 12.47,12.53 0,25 0,0 	"/>
</g>
<g id="Layer_4">
	<polygon points="25,50 0,50 0,25 12.47,37.47 12.47,37.53 12.53,37.53 	"/>
</g>
<g id="Layer_2">
	<polygon points="37.47,12.47 12.53,12.47 25,0 	"/>
</g>
<g id="Layer_9">
	<polygon points="12.47,12.53 12.47,37.47 0,25 	"/>
</g>
<g id="Layer_8">
	<polygon points="50,25 37.53,37.47 37.53,12.53 	"/>
</g>
<g id="Layer_7">
	<polygon points="37.47,37.53 25,50 12.53,37.53 	"/>
</g>
<g id="Layer_3">
	<polygon points="12.53,37.53 12.47,37.53 12.47,37.47 	"/>
	<polygon points="12.53,12.47 12.47,12.53 12.47,12.47 	"/>
	<polygon points="37.53,12.47 37.53,12.53 37.47,12.47 	"/>
	<polygon points="37.53,37.47 37.53,37.53 37.47,37.53 	"/>
	<polygon points="50,25 50,50 25,50 37.47,37.53 37.53,37.53 37.53,37.47 	"/>
</g>
<g id="Layer_6">
	<polygon points="37.53,12.53 37.53,37.47 37.47,37.53 12.53,37.53 12.47,37.47 12.47,12.53 12.53,12.47 37.47,12.47 	"/>
</g>
</svg>
